<?xml version="1.0" encoding="UTF-8" standalone="no"?>
<!--?xml version="1.0" encoding="utf-8"?-->

<!-- Generator: Adobe Illustrator 15.1.0, SVG Export Plug-In . SVG Version: 6.00 Build 0)  -->

<svg
   xmlns:dc="http://purl.org/dc/elements/1.1/"
   xmlns:cc="http://creativecommons.org/ns#"
   xmlns:rdf="http://www.w3.org/1999/02/22-rdf-syntax-ns#"
   xmlns:svg="http://www.w3.org/2000/svg"
   xmlns="http://www.w3.org/2000/svg"
   xmlns:sodipodi="http://sodipodi.sourceforge.net/DTD/sodipodi-0.dtd"
   xmlns:inkscape="http://www.inkscape.org/namespaces/inkscape"
   version="1.1"
   id="_x32_"
   x="0px"
   y="0px"
   width="512px"
   height="512px"
   viewBox="0 0 512 512"
   style="width: 32px; height: 32px; opacity: 1;"
   xml:space="preserve"
   sodipodi:docname="comet_icon.svg"
   inkscape:version="0.92.4 (5da689c313, 2019-01-14)"><metadata
   id="metadata13"><rdf:RDF><cc:Work
       rdf:about=""><dc:format>image/svg+xml</dc:format><dc:type
         rdf:resource="http://purl.org/dc/dcmitype/StillImage" /><dc:title></dc:title></cc:Work></rdf:RDF></metadata><defs
   id="defs11" /><sodipodi:namedview
   pagecolor="#ffffff"
   bordercolor="#666666"
   borderopacity="1"
   objecttolerance="10"
   gridtolerance="10"
   guidetolerance="10"
   inkscape:pageopacity="0"
   inkscape:pageshadow="2"
   inkscape:window-width="1920"
   inkscape:window-height="1027"
   id="namedview9"
   showgrid="false"
   inkscape:zoom="0.921875"
   inkscape:cx="-86.756465"
   inkscape:cy="235.08925"
   inkscape:window-x="-8"
   inkscape:window-y="-8"
   inkscape:window-maximized="1"
   inkscape:current-layer="_x32_" />
<style
   type="text/css"
   id="style2">

	.st0{fill:#4B4B4B;}

</style>
<g
   id="g6"
   transform="matrix(0.0643783,0,0,0.06250084,224.98199,255.45439)">
	<path
   class="st0"
   d="m 503.694,7.871 c 1.344,-2.047 1.047,-4.781 -0.734,-6.453 -1.781,-1.703 -4.5,-1.891 -6.484,-0.438 l -98.547,71.344 c -1.891,1.359 -4.484,1.266 -6.266,-0.25 -1.782,-1.516 -2.313,-4.047 -1.266,-6.141 l 10.844,-21.656 c 1.031,-2.047 0.547,-4.547 -1.156,-6.063 -1.719,-1.531 -4.25,-1.719 -6.172,-0.469 L 83.006,230.137 c -3.156,1.813 -6.297,3.688 -9.328,5.75 l -0.25,0.156 0.016,0.016 c -7.625,5.219 -14.922,11.125 -21.688,17.891 -59.047,59.031 -59.047,154.75 -0.016,213.766 29.531,29.516 68.219,44.281 106.906,44.281 38.687,0 77.359,-14.766 106.891,-44.281 6.766,-6.766 12.656,-14.047 17.875,-21.672 v 0.016 l 0.109,-0.172 c 1.844,-2.703 3.516,-5.484 5.172,-8.281 L 477.068,135.529 c 1.203,-1.844 1.094,-4.25 -0.281,-5.953 -1.375,-1.734 -3.688,-2.375 -5.75,-1.594 l -46.829,17.563 c -2.063,0.75 -4.375,0.125 -5.75,-1.594 -1.375,-1.719 -1.484,-4.125 -0.266,-5.953 z M 158.647,464.73 c -27.766,0 -53.859,-10.797 -73.484,-30.438 -40.5,-40.5 -40.5,-106.406 0,-146.922 6.813,-6.797 14.422,-12.469 22.578,-17.063 7.406,-4.172 15.297,-7.391 23.5,-9.641 0.766,-0.203 1.547,-0.375 2.344,-0.578 3.172,-0.797 6.406,-1.422 9.672,-1.906 1.031,-0.156 2.047,-0.328 3.078,-0.453 4.047,-0.484 8.156,-0.797 12.313,-0.797 27.75,0 53.828,10.813 73.453,30.438 2.344,2.328 4.516,4.781 6.578,7.281 0.688,0.813 1.297,1.672 1.938,2.5 1.344,1.734 2.641,3.469 3.859,5.25 0.703,1.031 1.359,2.063 2.016,3.109 1.047,1.656 2.047,3.344 3,5.063 0.609,1.109 1.219,2.234 1.797,3.359 0.859,1.719 1.656,3.484 2.422,5.234 0.5,1.141 1.031,2.266 1.484,3.422 0.813,2.063 1.516,4.172 2.188,6.266 0.656,2.031 1.219,4.063 1.75,6.125 0.391,1.563 0.813,3.109 1.141,4.688 0.344,1.703 0.609,3.438 0.875,5.156 0.188,1.219 0.375,2.438 0.516,3.656 0.219,1.875 0.391,3.75 0.5,5.625 0.063,1.016 0.109,2.047 0.156,3.063 0.063,2.047 0.109,4.094 0.047,6.141 -0.016,0.656 -0.063,1.328 -0.094,1.984 -0.453,10.406 -2.438,20.766 -6,30.688 -0.063,0.219 -0.141,0.438 -0.219,0.641 -0.891,2.422 -1.875,4.813 -2.938,7.188 -0.125,0.266 -0.266,0.563 -0.391,0.828 -1.125,2.406 -2.313,4.781 -3.609,7.094 -4.547,8.078 -10.141,15.703 -17,22.563 -19.642,19.64 -45.72,30.436 -73.47,30.436 z"
   style="fill:#111317"
   id="path4"
   inkscape:connector-curvature="0" />
</g>
<path
   style="fill:#003399;stroke:#ffffff;stroke-width:0.31982726;stroke-miterlimit:4;stroke-dasharray:none"
   d="m 234.48758,284.45116 c -1.63291,-0.17844 -3.16907,-0.94365 -4.25134,-2.11774 -1.42006,-1.54053 -2.00049,-3.64344 -1.56254,-5.6611 0.20152,-0.92841 0.61489,-1.81263 1.2045,-2.57649 0.11505,-0.14905 0.38217,-0.44028 0.59359,-0.64718 1.25977,-1.2328 2.94268,-1.91199 4.73761,-1.91199 2.08666,0 4.04707,0.94972 5.2991,2.56714 2.03862,2.63358 1.7302,6.309 -0.7205,8.58631 -0.97328,0.90442 -2.12676,1.46942 -3.46728,1.69836 -0.45988,0.0785 -1.39532,0.11053 -1.83314,0.0627 z"
   id="path4619"
   inkscape:connector-curvature="0" /></svg>